<mxfile host="Electron" agent="Mozilla/5.0 (Windows NT 10.0; Win64; x64) AppleWebKit/537.36 (KHTML, like Gecko) draw.io/28.0.4 Chrome/138.0.7204.97 Electron/37.2.1 Safari/537.36" version="28.0.4">
  <diagram id="1GNc7JNVWh0fvsZwafnC" name="페이지-2">
    <mxGraphModel dx="972" dy="574" grid="1" gridSize="10" guides="1" tooltips="1" connect="1" arrows="1" fold="1" page="1" pageScale="1" pageWidth="827" pageHeight="1169" math="0" shadow="0">
      <root>
        <mxCell id="0" />
        <mxCell id="1" parent="0" />
        <mxCell id="ce3GNabn1mLZA2RWw7bm-1" value="" style="rounded=0;whiteSpace=wrap;html=1;" vertex="1" parent="1">
          <mxGeometry x="240" y="350" width="830" height="520" as="geometry" />
        </mxCell>
        <mxCell id="prphjMj8plXfg6p5t9-S-1" value="회원" style="shape=umlActor;verticalLabelPosition=bottom;verticalAlign=top;html=1;outlineConnect=0;" parent="1" vertex="1">
          <mxGeometry x="285" y="425" width="30" height="60" as="geometry" />
        </mxCell>
        <mxCell id="prphjMj8plXfg6p5t9-S-2" value="비회원" style="shape=umlActor;verticalLabelPosition=bottom;verticalAlign=top;html=1;outlineConnect=0;" parent="1" vertex="1">
          <mxGeometry x="285" y="755" width="30" height="60" as="geometry" />
        </mxCell>
        <mxCell id="prphjMj8plXfg6p5t9-S-3" value="관리자" style="shape=umlActor;verticalLabelPosition=bottom;verticalAlign=top;html=1;outlineConnect=0;" parent="1" vertex="1">
          <mxGeometry x="1000" y="560" width="30" height="60" as="geometry" />
        </mxCell>
        <mxCell id="prphjMj8plXfg6p5t9-S-4" value="대구특별시 홈페이지" style="shape=umlFrame;whiteSpace=wrap;html=1;pointerEvents=0;width=130;height=30;" parent="1" vertex="1">
          <mxGeometry x="330" y="380" width="650" height="460" as="geometry" />
        </mxCell>
        <mxCell id="prphjMj8plXfg6p5t9-S-5" value="" style="group" parent="1" vertex="1" connectable="0">
          <mxGeometry x="780" y="603.4" width="179" height="120" as="geometry" />
        </mxCell>
        <mxCell id="prphjMj8plXfg6p5t9-S-6" value="감사정보" style="ellipse;whiteSpace=wrap;html=1;" parent="prphjMj8plXfg6p5t9-S-5" vertex="1">
          <mxGeometry x="27" y="-18.4" width="80" height="50" as="geometry" />
        </mxCell>
        <mxCell id="prphjMj8plXfg6p5t9-S-8" value="" style="edgeStyle=orthogonalEdgeStyle;rounded=0;orthogonalLoop=1;jettySize=auto;html=1;endArrow=block;endFill=0;endSize=4;exitX=0.5;exitY=0;exitDx=0;exitDy=0;entryX=0.5;entryY=1;entryDx=0;entryDy=0;" parent="prphjMj8plXfg6p5t9-S-5" source="prphjMj8plXfg6p5t9-S-9" target="prphjMj8plXfg6p5t9-S-6" edge="1">
          <mxGeometry relative="1" as="geometry">
            <Array as="points">
              <mxPoint x="67" y="37.6" />
              <mxPoint x="67" y="37.6" />
            </Array>
          </mxGeometry>
        </mxCell>
        <mxCell id="prphjMj8plXfg6p5t9-S-9" value="수정" style="ellipse;whiteSpace=wrap;html=1;aspect=fixed;" parent="prphjMj8plXfg6p5t9-S-5" vertex="1">
          <mxGeometry x="47" y="50.6" width="40" height="40" as="geometry" />
        </mxCell>
        <mxCell id="prphjMj8plXfg6p5t9-S-10" value="" style="edgeStyle=orthogonalEdgeStyle;rounded=0;orthogonalLoop=1;jettySize=auto;html=1;endArrow=block;endFill=0;endSize=4;exitX=0.5;exitY=0;exitDx=0;exitDy=0;entryX=0.5;entryY=1;entryDx=0;entryDy=0;" parent="prphjMj8plXfg6p5t9-S-5" source="prphjMj8plXfg6p5t9-S-11" target="prphjMj8plXfg6p5t9-S-6" edge="1">
          <mxGeometry relative="1" as="geometry">
            <Array as="points">
              <mxPoint x="113" y="42.6" />
              <mxPoint x="67" y="42.6" />
            </Array>
          </mxGeometry>
        </mxCell>
        <mxCell id="prphjMj8plXfg6p5t9-S-11" value="삭제" style="ellipse;whiteSpace=wrap;html=1;aspect=fixed;" parent="prphjMj8plXfg6p5t9-S-5" vertex="1">
          <mxGeometry x="93" y="50.6" width="40" height="40" as="geometry" />
        </mxCell>
        <mxCell id="prphjMj8plXfg6p5t9-S-13" value="" style="edgeStyle=orthogonalEdgeStyle;rounded=0;orthogonalLoop=1;jettySize=auto;html=1;entryX=0.5;entryY=1;entryDx=0;entryDy=0;endArrow=block;endFill=0;endSize=4;" parent="prphjMj8plXfg6p5t9-S-5" source="prphjMj8plXfg6p5t9-S-14" target="prphjMj8plXfg6p5t9-S-6" edge="1">
          <mxGeometry relative="1" as="geometry">
            <Array as="points">
              <mxPoint x="43" y="42.6" />
              <mxPoint x="64" y="42.6" />
            </Array>
          </mxGeometry>
        </mxCell>
        <mxCell id="prphjMj8plXfg6p5t9-S-14" value="등록" style="ellipse;whiteSpace=wrap;html=1;aspect=fixed;" parent="prphjMj8plXfg6p5t9-S-5" vertex="1">
          <mxGeometry y="50.6" width="40" height="40" as="geometry" />
        </mxCell>
        <mxCell id="prphjMj8plXfg6p5t9-S-15" value="&lt;font style=&quot;font-size: 8px;&quot;&gt;USE&lt;/font&gt;" style="html=1;verticalAlign=bottom;endArrow=block;curved=0;rounded=0;entryX=0;entryY=0.5;entryDx=0;entryDy=0;entryPerimeter=0;exitX=0.5;exitY=0.5;exitDx=0;exitDy=0;exitPerimeter=0;" parent="1" source="prphjMj8plXfg6p5t9-S-2" target="prphjMj8plXfg6p5t9-S-17" edge="1">
          <mxGeometry width="80" relative="1" as="geometry">
            <mxPoint x="610" y="700" as="sourcePoint" />
            <mxPoint x="690" y="700" as="targetPoint" />
          </mxGeometry>
        </mxCell>
        <mxCell id="prphjMj8plXfg6p5t9-S-16" value="로그인" style="strokeWidth=1;html=1;shape=mxgraph.flowchart.start_1;whiteSpace=wrap;" parent="1" vertex="1">
          <mxGeometry x="470" y="435" width="60" height="50" as="geometry" />
        </mxCell>
        <mxCell id="prphjMj8plXfg6p5t9-S-17" value="회원가입" style="strokeWidth=1;html=1;shape=mxgraph.flowchart.start_1;whiteSpace=wrap;" parent="1" vertex="1">
          <mxGeometry x="414" y="755" width="60" height="50" as="geometry" />
        </mxCell>
        <mxCell id="prphjMj8plXfg6p5t9-S-18" value="" style="endArrow=block;endFill=1;endSize=5;html=1;rounded=0;entryX=1;entryY=0.5;entryDx=0;entryDy=0;exitX=0.5;exitY=0.5;exitDx=0;exitDy=0;exitPerimeter=0;" parent="1" source="prphjMj8plXfg6p5t9-S-3" target="prphjMj8plXfg6p5t9-S-6" edge="1">
          <mxGeometry width="160" relative="1" as="geometry">
            <mxPoint x="780" y="510" as="sourcePoint" />
            <mxPoint x="940" y="510" as="targetPoint" />
          </mxGeometry>
        </mxCell>
        <mxCell id="prphjMj8plXfg6p5t9-S-19" value="&lt;font style=&quot;font-size: 8px;&quot;&gt;USE&lt;/font&gt;" style="edgeLabel;html=1;align=center;verticalAlign=middle;resizable=0;points=[];" parent="prphjMj8plXfg6p5t9-S-18" vertex="1" connectable="0">
          <mxGeometry x="0.0004" y="1" relative="1" as="geometry">
            <mxPoint as="offset" />
          </mxGeometry>
        </mxCell>
        <mxCell id="prphjMj8plXfg6p5t9-S-32" value="&lt;font style=&quot;font-size: 8px;&quot;&gt;&amp;lt;&amp;lt;Include&amp;gt;&amp;gt;&lt;/font&gt;" style="endArrow=open;endSize=6;dashed=1;html=1;rounded=0;exitX=0.188;exitY=0.071;exitDx=0;exitDy=0;entryX=1;entryY=0.5;entryDx=0;entryDy=0;entryPerimeter=0;exitPerimeter=0;" parent="1" source="prphjMj8plXfg6p5t9-S-39" target="prphjMj8plXfg6p5t9-S-16" edge="1">
          <mxGeometry width="160" relative="1" as="geometry">
            <mxPoint x="580" y="473.4" as="sourcePoint" />
            <mxPoint x="740" y="473.4" as="targetPoint" />
          </mxGeometry>
        </mxCell>
        <mxCell id="cyap4YPfdqI9_J-G0vkb-10" style="edgeStyle=orthogonalEdgeStyle;rounded=0;orthogonalLoop=1;jettySize=auto;html=1;exitX=0.5;exitY=0;exitDx=0;exitDy=0;endArrow=block;endFill=0;startSize=5;endSize=5;" parent="1" source="prphjMj8plXfg6p5t9-S-33" edge="1">
          <mxGeometry relative="1" as="geometry">
            <mxPoint x="655" y="615" as="targetPoint" />
          </mxGeometry>
        </mxCell>
        <mxCell id="prphjMj8plXfg6p5t9-S-33" value="삭제" style="ellipse;whiteSpace=wrap;html=1;aspect=fixed;" parent="1" vertex="1">
          <mxGeometry x="635" y="649.4" width="40" height="40" as="geometry" />
        </mxCell>
        <mxCell id="cyap4YPfdqI9_J-G0vkb-9" style="edgeStyle=orthogonalEdgeStyle;rounded=0;orthogonalLoop=1;jettySize=auto;html=1;entryX=0.5;entryY=1;entryDx=0;entryDy=0;endArrow=block;endFill=0;startSize=5;endSize=5;" parent="1" source="prphjMj8plXfg6p5t9-S-34" target="prphjMj8plXfg6p5t9-S-39" edge="1">
          <mxGeometry relative="1" as="geometry">
            <Array as="points">
              <mxPoint x="609" y="629" />
              <mxPoint x="655" y="629" />
            </Array>
          </mxGeometry>
        </mxCell>
        <mxCell id="prphjMj8plXfg6p5t9-S-34" value="등록" style="ellipse;whiteSpace=wrap;html=1;aspect=fixed;" parent="1" vertex="1">
          <mxGeometry x="589" y="649.4" width="40" height="40" as="geometry" />
        </mxCell>
        <mxCell id="cyap4YPfdqI9_J-G0vkb-6" style="edgeStyle=orthogonalEdgeStyle;rounded=0;orthogonalLoop=1;jettySize=auto;html=1;exitX=0.5;exitY=0;exitDx=0;exitDy=0;endArrow=block;endFill=0;startSize=5;endSize=5;" parent="1" source="prphjMj8plXfg6p5t9-S-35" target="prphjMj8plXfg6p5t9-S-39" edge="1">
          <mxGeometry relative="1" as="geometry">
            <Array as="points">
              <mxPoint x="701" y="629" />
              <mxPoint x="655" y="629" />
            </Array>
          </mxGeometry>
        </mxCell>
        <mxCell id="prphjMj8plXfg6p5t9-S-35" value="수정" style="ellipse;whiteSpace=wrap;html=1;aspect=fixed;" parent="1" vertex="1">
          <mxGeometry x="681" y="649.4" width="40" height="40" as="geometry" />
        </mxCell>
        <mxCell id="prphjMj8plXfg6p5t9-S-39" value="자유게시판" style="ellipse;whiteSpace=wrap;html=1;" parent="1" vertex="1">
          <mxGeometry x="615" y="545" width="80" height="70" as="geometry" />
        </mxCell>
        <mxCell id="prphjMj8plXfg6p5t9-S-40" value="" style="endArrow=block;endFill=1;endSize=5;html=1;rounded=0;entryX=0;entryY=0.5;entryDx=0;entryDy=0;exitX=0.5;exitY=0.5;exitDx=0;exitDy=0;exitPerimeter=0;" parent="1" source="prphjMj8plXfg6p5t9-S-1" target="prphjMj8plXfg6p5t9-S-39" edge="1">
          <mxGeometry width="160" relative="1" as="geometry">
            <mxPoint x="370" y="534" as="sourcePoint" />
            <mxPoint x="742" y="490" as="targetPoint" />
          </mxGeometry>
        </mxCell>
        <mxCell id="prphjMj8plXfg6p5t9-S-41" value="&lt;font style=&quot;font-size: 8px;&quot;&gt;USE&lt;/font&gt;" style="edgeLabel;html=1;align=center;verticalAlign=middle;resizable=0;points=[];" parent="prphjMj8plXfg6p5t9-S-40" vertex="1" connectable="0">
          <mxGeometry x="0.0004" y="1" relative="1" as="geometry">
            <mxPoint as="offset" />
          </mxGeometry>
        </mxCell>
        <mxCell id="prphjMj8plXfg6p5t9-S-44" value="" style="endArrow=block;endFill=1;endSize=5;html=1;rounded=0;entryX=1;entryY=0.5;entryDx=0;entryDy=0;exitX=0.5;exitY=0.5;exitDx=0;exitDy=0;exitPerimeter=0;" parent="1" source="prphjMj8plXfg6p5t9-S-3" target="HbuPG1Vowg-ZF2H3N5YU-6" edge="1">
          <mxGeometry width="160" relative="1" as="geometry">
            <mxPoint x="1051" y="803" as="sourcePoint" />
            <mxPoint x="883.8799999999999" y="714.25" as="targetPoint" />
          </mxGeometry>
        </mxCell>
        <mxCell id="prphjMj8plXfg6p5t9-S-45" value="&lt;font style=&quot;font-size: 8px;&quot;&gt;USE&lt;/font&gt;" style="edgeLabel;html=1;align=center;verticalAlign=middle;resizable=0;points=[];" parent="prphjMj8plXfg6p5t9-S-44" vertex="1" connectable="0">
          <mxGeometry x="0.0004" y="1" relative="1" as="geometry">
            <mxPoint as="offset" />
          </mxGeometry>
        </mxCell>
        <mxCell id="prphjMj8plXfg6p5t9-S-47" value="" style="endArrow=block;endFill=1;endSize=5;html=1;rounded=0;entryX=0.973;entryY=0.375;entryDx=0;entryDy=0;entryPerimeter=0;exitX=0.5;exitY=0.5;exitDx=0;exitDy=0;exitPerimeter=0;" parent="1" source="prphjMj8plXfg6p5t9-S-3" target="prphjMj8plXfg6p5t9-S-39" edge="1">
          <mxGeometry width="160" relative="1" as="geometry">
            <mxPoint x="1143" y="719" as="sourcePoint" />
            <mxPoint x="790" y="550" as="targetPoint" />
          </mxGeometry>
        </mxCell>
        <mxCell id="prphjMj8plXfg6p5t9-S-48" value="&lt;font style=&quot;font-size: 8px;&quot;&gt;USE&lt;/font&gt;" style="edgeLabel;html=1;align=center;verticalAlign=middle;resizable=0;points=[];" parent="prphjMj8plXfg6p5t9-S-47" vertex="1" connectable="0">
          <mxGeometry x="0.0004" y="1" relative="1" as="geometry">
            <mxPoint as="offset" />
          </mxGeometry>
        </mxCell>
        <mxCell id="prphjMj8plXfg6p5t9-S-51" value="게시글&lt;div&gt;조회&lt;/div&gt;" style="ellipse;whiteSpace=wrap;html=1;aspect=fixed;" parent="1" vertex="1">
          <mxGeometry x="500" y="620" width="40" height="40" as="geometry" />
        </mxCell>
        <mxCell id="prphjMj8plXfg6p5t9-S-52" value="&lt;font style=&quot;font-size: 8px;&quot;&gt;전체글보기&lt;/font&gt;" style="strokeWidth=1;html=1;shape=mxgraph.flowchart.start_1;whiteSpace=wrap;" parent="1" vertex="1">
          <mxGeometry x="470" y="683.4000000000001" width="45" height="30" as="geometry" />
        </mxCell>
        <mxCell id="prphjMj8plXfg6p5t9-S-53" value="&lt;font style=&quot;font-size: 8px;&quot;&gt;키워드 검색&lt;/font&gt;" style="strokeWidth=1;html=1;shape=mxgraph.flowchart.start_1;whiteSpace=wrap;" parent="1" vertex="1">
          <mxGeometry x="530" y="683.4" width="45" height="30" as="geometry" />
        </mxCell>
        <mxCell id="prphjMj8plXfg6p5t9-S-54" value="&lt;font style=&quot;font-size: 8px;&quot;&gt;&amp;lt;&amp;lt;Extend&amp;gt;&amp;gt;&lt;/font&gt;" style="endArrow=open;endSize=7;dashed=1;html=1;rounded=0;exitX=0.429;exitY=0;exitDx=0;exitDy=0;exitPerimeter=0;entryX=0.5;entryY=1;entryDx=0;entryDy=0;" parent="1" source="prphjMj8plXfg6p5t9-S-52" target="prphjMj8plXfg6p5t9-S-51" edge="1">
          <mxGeometry x="-0.4871" y="-6" width="160" relative="1" as="geometry">
            <mxPoint x="445" y="624.4" as="sourcePoint" />
            <mxPoint x="605" y="624.4" as="targetPoint" />
            <mxPoint as="offset" />
          </mxGeometry>
        </mxCell>
        <mxCell id="prphjMj8plXfg6p5t9-S-55" value="&lt;font style=&quot;font-size: 8px;&quot;&gt;&amp;lt;&amp;lt;Extend&amp;gt;&amp;gt;&lt;/font&gt;" style="endArrow=open;endSize=7;dashed=1;html=1;rounded=0;exitX=0.398;exitY=-0.054;exitDx=0;exitDy=0;exitPerimeter=0;entryX=0.5;entryY=1;entryDx=0;entryDy=0;" parent="1" source="prphjMj8plXfg6p5t9-S-53" target="prphjMj8plXfg6p5t9-S-51" edge="1">
          <mxGeometry x="-0.7382" y="-3" width="160" relative="1" as="geometry">
            <mxPoint x="635" y="719.4" as="sourcePoint" />
            <mxPoint x="642" y="654.4" as="targetPoint" />
            <mxPoint as="offset" />
          </mxGeometry>
        </mxCell>
        <mxCell id="prphjMj8plXfg6p5t9-S-56" value="" style="endArrow=block;endFill=1;endSize=5;html=1;rounded=0;entryX=0;entryY=0.5;entryDx=0;entryDy=0;exitX=0.5;exitY=0.5;exitDx=0;exitDy=0;exitPerimeter=0;" parent="1" source="prphjMj8plXfg6p5t9-S-1" target="prphjMj8plXfg6p5t9-S-51" edge="1">
          <mxGeometry width="160" relative="1" as="geometry">
            <mxPoint x="330" y="640" as="sourcePoint" />
            <mxPoint x="420" y="640" as="targetPoint" />
            <Array as="points">
              <mxPoint x="300" y="510" />
              <mxPoint x="300" y="640" />
            </Array>
          </mxGeometry>
        </mxCell>
        <mxCell id="prphjMj8plXfg6p5t9-S-57" value="&lt;font style=&quot;font-size: 8px;&quot;&gt;USE&lt;/font&gt;" style="edgeLabel;html=1;align=center;verticalAlign=middle;resizable=0;points=[];" parent="prphjMj8plXfg6p5t9-S-56" vertex="1" connectable="0">
          <mxGeometry x="0.0004" y="1" relative="1" as="geometry">
            <mxPoint x="-6" y="10" as="offset" />
          </mxGeometry>
        </mxCell>
        <mxCell id="prphjMj8plXfg6p5t9-S-58" value="" style="endArrow=block;endFill=1;endSize=5;html=1;rounded=0;entryX=0;entryY=0.5;entryDx=0;entryDy=0;exitX=0.5;exitY=0;exitDx=0;exitDy=0;exitPerimeter=0;" parent="1" source="prphjMj8plXfg6p5t9-S-2" target="prphjMj8plXfg6p5t9-S-51" edge="1">
          <mxGeometry width="160" relative="1" as="geometry">
            <mxPoint x="290" y="750" as="sourcePoint" />
            <mxPoint x="356" y="812" as="targetPoint" />
            <Array as="points">
              <mxPoint x="300" y="740" />
              <mxPoint x="300" y="640" />
            </Array>
          </mxGeometry>
        </mxCell>
        <mxCell id="prphjMj8plXfg6p5t9-S-59" value="관리자&lt;div&gt;로그인&lt;/div&gt;" style="strokeWidth=1;html=1;shape=mxgraph.flowchart.start_1;whiteSpace=wrap;" parent="1" vertex="1">
          <mxGeometry x="658" y="730" width="60" height="50" as="geometry" />
        </mxCell>
        <mxCell id="prphjMj8plXfg6p5t9-S-60" value="" style="group" parent="1" vertex="1" connectable="0">
          <mxGeometry x="750" y="440" width="179" height="120" as="geometry" />
        </mxCell>
        <mxCell id="prphjMj8plXfg6p5t9-S-61" value="회원관리" style="ellipse;whiteSpace=wrap;html=1;" parent="prphjMj8plXfg6p5t9-S-60" vertex="1">
          <mxGeometry x="77" y="10" width="47" height="40" as="geometry" />
        </mxCell>
        <mxCell id="prphjMj8plXfg6p5t9-S-63" value="수정" style="ellipse;whiteSpace=wrap;html=1;aspect=fixed;" parent="prphjMj8plXfg6p5t9-S-60" vertex="1">
          <mxGeometry x="61" y="70" width="40" height="40" as="geometry" />
        </mxCell>
        <mxCell id="prphjMj8plXfg6p5t9-S-64" value="" style="edgeStyle=orthogonalEdgeStyle;rounded=0;orthogonalLoop=1;jettySize=auto;html=1;endArrow=block;endFill=0;endSize=4;entryX=0.5;entryY=1;entryDx=0;entryDy=0;exitX=0.5;exitY=0;exitDx=0;exitDy=0;" parent="prphjMj8plXfg6p5t9-S-60" source="prphjMj8plXfg6p5t9-S-65" target="prphjMj8plXfg6p5t9-S-61" edge="1">
          <mxGeometry relative="1" as="geometry">
            <Array as="points">
              <mxPoint x="101" y="60" />
            </Array>
            <mxPoint x="110" y="60" as="targetPoint" />
          </mxGeometry>
        </mxCell>
        <mxCell id="prphjMj8plXfg6p5t9-S-65" value="삭제" style="ellipse;whiteSpace=wrap;html=1;aspect=fixed;" parent="prphjMj8plXfg6p5t9-S-60" vertex="1">
          <mxGeometry x="107" y="70" width="40" height="40" as="geometry" />
        </mxCell>
        <mxCell id="cyap4YPfdqI9_J-G0vkb-4" value="" style="edgeStyle=orthogonalEdgeStyle;rounded=0;orthogonalLoop=1;jettySize=auto;html=1;endArrow=block;endFill=0;endSize=4;entryX=0.5;entryY=1;entryDx=0;entryDy=0;exitX=0.5;exitY=0;exitDx=0;exitDy=0;" parent="prphjMj8plXfg6p5t9-S-60" source="prphjMj8plXfg6p5t9-S-63" target="prphjMj8plXfg6p5t9-S-61" edge="1">
          <mxGeometry relative="1" as="geometry">
            <Array as="points">
              <mxPoint x="81" y="60" />
              <mxPoint x="100" y="60" />
              <mxPoint x="100" y="50" />
            </Array>
            <mxPoint x="136" y="80" as="sourcePoint" />
            <mxPoint x="110" y="60" as="targetPoint" />
          </mxGeometry>
        </mxCell>
        <mxCell id="prphjMj8plXfg6p5t9-S-66" value="" style="endArrow=block;endFill=1;endSize=5;html=1;rounded=0;entryX=1;entryY=0.5;entryDx=0;entryDy=0;exitX=0.5;exitY=0.5;exitDx=0;exitDy=0;exitPerimeter=0;" parent="1" source="prphjMj8plXfg6p5t9-S-3" target="prphjMj8plXfg6p5t9-S-61" edge="1">
          <mxGeometry width="160" relative="1" as="geometry">
            <mxPoint x="957" y="492" as="sourcePoint" />
            <mxPoint x="890" y="400" as="targetPoint" />
          </mxGeometry>
        </mxCell>
        <mxCell id="prphjMj8plXfg6p5t9-S-67" value="&lt;font style=&quot;font-size: 8px;&quot;&gt;USE&lt;/font&gt;" style="edgeLabel;html=1;align=center;verticalAlign=middle;resizable=0;points=[];" parent="prphjMj8plXfg6p5t9-S-66" vertex="1" connectable="0">
          <mxGeometry x="0.0004" y="1" relative="1" as="geometry">
            <mxPoint as="offset" />
          </mxGeometry>
        </mxCell>
        <mxCell id="prphjMj8plXfg6p5t9-S-68" value="&lt;font style=&quot;font-size: 8px;&quot;&gt;&amp;lt;&amp;lt;Include&amp;gt;&amp;gt;&lt;/font&gt;" style="endArrow=open;endSize=8;dashed=1;html=1;rounded=0;entryX=0.855;entryY=0.145;entryDx=0;entryDy=0;entryPerimeter=0;exitX=0;exitY=1;exitDx=0;exitDy=0;" parent="1" source="prphjMj8plXfg6p5t9-S-61" target="prphjMj8plXfg6p5t9-S-59" edge="1">
          <mxGeometry x="0.0028" width="160" relative="1" as="geometry">
            <mxPoint x="820" y="430" as="sourcePoint" />
            <mxPoint x="770" y="500" as="targetPoint" />
            <mxPoint as="offset" />
          </mxGeometry>
        </mxCell>
        <mxCell id="prphjMj8plXfg6p5t9-S-70" value="시청안내 조회" style="ellipse;whiteSpace=wrap;html=1;aspect=fixed;" parent="1" vertex="1">
          <mxGeometry x="395" y="663.4" width="50" height="50" as="geometry" />
        </mxCell>
        <mxCell id="prphjMj8plXfg6p5t9-S-72" value="감사정보&lt;div&gt;조회&lt;/div&gt;" style="ellipse;whiteSpace=wrap;html=1;aspect=fixed;" parent="1" vertex="1">
          <mxGeometry x="395" y="553.4" width="50" height="50" as="geometry" />
        </mxCell>
        <mxCell id="prphjMj8plXfg6p5t9-S-73" value="" style="endArrow=block;endFill=1;endSize=5;html=1;rounded=0;entryX=0;entryY=0;entryDx=0;entryDy=0;exitX=0.5;exitY=0.5;exitDx=0;exitDy=0;exitPerimeter=0;" parent="1" source="prphjMj8plXfg6p5t9-S-1" target="prphjMj8plXfg6p5t9-S-72" edge="1">
          <mxGeometry width="160" relative="1" as="geometry">
            <mxPoint x="340" y="582.9999999999999" as="sourcePoint" />
            <mxPoint x="540" y="540" as="targetPoint" />
          </mxGeometry>
        </mxCell>
        <mxCell id="prphjMj8plXfg6p5t9-S-74" value="&lt;font style=&quot;font-size: 8px;&quot;&gt;USE&lt;/font&gt;" style="edgeLabel;html=1;align=center;verticalAlign=middle;resizable=0;points=[];" parent="prphjMj8plXfg6p5t9-S-73" vertex="1" connectable="0">
          <mxGeometry x="0.0004" y="1" relative="1" as="geometry">
            <mxPoint as="offset" />
          </mxGeometry>
        </mxCell>
        <mxCell id="prphjMj8plXfg6p5t9-S-75" value="" style="endArrow=block;endFill=1;endSize=5;html=1;rounded=0;entryX=0;entryY=0;entryDx=0;entryDy=0;exitX=0.5;exitY=0.5;exitDx=0;exitDy=0;exitPerimeter=0;" parent="1" source="prphjMj8plXfg6p5t9-S-1" target="prphjMj8plXfg6p5t9-S-70" edge="1">
          <mxGeometry width="160" relative="1" as="geometry">
            <mxPoint x="310" y="490" as="sourcePoint" />
            <mxPoint x="540" y="560" as="targetPoint" />
          </mxGeometry>
        </mxCell>
        <mxCell id="prphjMj8plXfg6p5t9-S-76" value="&lt;font style=&quot;font-size: 8px;&quot;&gt;USE&lt;/font&gt;" style="edgeLabel;html=1;align=center;verticalAlign=middle;resizable=0;points=[];" parent="prphjMj8plXfg6p5t9-S-75" vertex="1" connectable="0">
          <mxGeometry x="0.0004" y="1" relative="1" as="geometry">
            <mxPoint as="offset" />
          </mxGeometry>
        </mxCell>
        <mxCell id="prphjMj8plXfg6p5t9-S-80" value="" style="endArrow=block;endFill=1;endSize=5;html=1;rounded=0;entryX=0.293;entryY=0.886;entryDx=0;entryDy=0;entryPerimeter=0;exitX=0.5;exitY=0.5;exitDx=0;exitDy=0;exitPerimeter=0;" parent="1" source="prphjMj8plXfg6p5t9-S-2" target="prphjMj8plXfg6p5t9-S-72" edge="1">
          <mxGeometry width="160" relative="1" as="geometry">
            <mxPoint x="370" y="722.9999999999999" as="sourcePoint" />
            <mxPoint x="570" y="680" as="targetPoint" />
          </mxGeometry>
        </mxCell>
        <mxCell id="prphjMj8plXfg6p5t9-S-81" value="&lt;font style=&quot;font-size: 8px;&quot;&gt;USE&lt;/font&gt;" style="edgeLabel;html=1;align=center;verticalAlign=middle;resizable=0;points=[];" parent="prphjMj8plXfg6p5t9-S-80" vertex="1" connectable="0">
          <mxGeometry x="0.0004" y="1" relative="1" as="geometry">
            <mxPoint as="offset" />
          </mxGeometry>
        </mxCell>
        <mxCell id="prphjMj8plXfg6p5t9-S-82" value="" style="endArrow=block;endFill=1;endSize=5;html=1;rounded=0;entryX=0;entryY=1;entryDx=0;entryDy=0;exitX=0.5;exitY=0.5;exitDx=0;exitDy=0;exitPerimeter=0;" parent="1" source="prphjMj8plXfg6p5t9-S-2" target="prphjMj8plXfg6p5t9-S-70" edge="1">
          <mxGeometry width="160" relative="1" as="geometry">
            <mxPoint x="330" y="722.9999999999999" as="sourcePoint" />
            <mxPoint x="530" y="680" as="targetPoint" />
          </mxGeometry>
        </mxCell>
        <mxCell id="prphjMj8plXfg6p5t9-S-83" value="&lt;font style=&quot;font-size: 8px;&quot;&gt;USE&lt;/font&gt;" style="edgeLabel;html=1;align=center;verticalAlign=middle;resizable=0;points=[];" parent="prphjMj8plXfg6p5t9-S-82" vertex="1" connectable="0">
          <mxGeometry x="0.0004" y="1" relative="1" as="geometry">
            <mxPoint as="offset" />
          </mxGeometry>
        </mxCell>
        <mxCell id="cK8WbH9ErtB56Dr2nwjq-2" value="&lt;font style=&quot;font-size: 8px;&quot;&gt;&amp;lt;&amp;lt;Include&amp;gt;&amp;gt;&lt;/font&gt;" style="endArrow=open;endSize=8;dashed=1;html=1;rounded=0;entryX=0.855;entryY=0.145;entryDx=0;entryDy=0;entryPerimeter=0;exitX=0;exitY=0.5;exitDx=0;exitDy=0;" parent="1" source="HbuPG1Vowg-ZF2H3N5YU-6" target="prphjMj8plXfg6p5t9-S-59" edge="1">
          <mxGeometry x="0.0028" width="160" relative="1" as="geometry">
            <mxPoint x="807.3777188269999" y="728.4275329734428" as="sourcePoint" />
            <mxPoint x="859" y="620" as="targetPoint" />
            <mxPoint as="offset" />
          </mxGeometry>
        </mxCell>
        <mxCell id="cK8WbH9ErtB56Dr2nwjq-3" value="&lt;font style=&quot;font-size: 8px;&quot;&gt;&amp;lt;&amp;lt;Include&amp;gt;&amp;gt;&lt;/font&gt;" style="endArrow=open;endSize=8;dashed=1;html=1;rounded=0;entryX=0.855;entryY=0.145;entryDx=0;entryDy=0;entryPerimeter=0;exitX=0;exitY=0.5;exitDx=0;exitDy=0;" parent="1" source="prphjMj8plXfg6p5t9-S-6" target="prphjMj8plXfg6p5t9-S-59" edge="1">
          <mxGeometry x="0.0028" width="160" relative="1" as="geometry">
            <mxPoint x="760" y="493" as="sourcePoint" />
            <mxPoint x="839" y="490" as="targetPoint" />
            <mxPoint as="offset" />
          </mxGeometry>
        </mxCell>
        <mxCell id="HbuPG1Vowg-ZF2H3N5YU-6" value="시청안내" style="ellipse;whiteSpace=wrap;html=1;" parent="1" vertex="1">
          <mxGeometry x="807" y="706.0025300704261" width="80" height="50" as="geometry" />
        </mxCell>
        <mxCell id="HbuPG1Vowg-ZF2H3N5YU-7" value="" style="edgeStyle=orthogonalEdgeStyle;rounded=0;orthogonalLoop=1;jettySize=auto;html=1;endArrow=block;endFill=0;endSize=4;exitX=0.5;exitY=0;exitDx=0;exitDy=0;entryX=0.5;entryY=1;entryDx=0;entryDy=0;" parent="1" source="HbuPG1Vowg-ZF2H3N5YU-8" target="HbuPG1Vowg-ZF2H3N5YU-6" edge="1">
          <mxGeometry relative="1" as="geometry">
            <Array as="points">
              <mxPoint x="847" y="762.0025300704261" />
              <mxPoint x="847" y="762.0025300704261" />
            </Array>
          </mxGeometry>
        </mxCell>
        <mxCell id="HbuPG1Vowg-ZF2H3N5YU-8" value="수정" style="ellipse;whiteSpace=wrap;html=1;aspect=fixed;" parent="1" vertex="1">
          <mxGeometry x="827" y="775.0025300704261" width="40" height="40" as="geometry" />
        </mxCell>
        <mxCell id="HbuPG1Vowg-ZF2H3N5YU-9" value="" style="edgeStyle=orthogonalEdgeStyle;rounded=0;orthogonalLoop=1;jettySize=auto;html=1;endArrow=block;endFill=0;endSize=4;exitX=0.5;exitY=0;exitDx=0;exitDy=0;entryX=0.5;entryY=1;entryDx=0;entryDy=0;" parent="1" source="HbuPG1Vowg-ZF2H3N5YU-10" target="HbuPG1Vowg-ZF2H3N5YU-6" edge="1">
          <mxGeometry relative="1" as="geometry">
            <Array as="points">
              <mxPoint x="893" y="767.0025300704261" />
              <mxPoint x="847" y="767.0025300704261" />
            </Array>
          </mxGeometry>
        </mxCell>
        <mxCell id="HbuPG1Vowg-ZF2H3N5YU-10" value="삭제" style="ellipse;whiteSpace=wrap;html=1;aspect=fixed;" parent="1" vertex="1">
          <mxGeometry x="873" y="775.0025300704261" width="40" height="40" as="geometry" />
        </mxCell>
        <mxCell id="HbuPG1Vowg-ZF2H3N5YU-11" value="" style="edgeStyle=orthogonalEdgeStyle;rounded=0;orthogonalLoop=1;jettySize=auto;html=1;entryX=0.5;entryY=1;entryDx=0;entryDy=0;endArrow=block;endFill=0;endSize=4;" parent="1" source="HbuPG1Vowg-ZF2H3N5YU-12" target="HbuPG1Vowg-ZF2H3N5YU-6" edge="1">
          <mxGeometry relative="1" as="geometry">
            <Array as="points">
              <mxPoint x="823" y="767.0025300704261" />
              <mxPoint x="844" y="767.0025300704261" />
            </Array>
          </mxGeometry>
        </mxCell>
        <mxCell id="HbuPG1Vowg-ZF2H3N5YU-12" value="등록" style="ellipse;whiteSpace=wrap;html=1;aspect=fixed;" parent="1" vertex="1">
          <mxGeometry x="780" y="775.0025300704261" width="40" height="40" as="geometry" />
        </mxCell>
      </root>
    </mxGraphModel>
  </diagram>
</mxfile>
